<svg xmlns="http://www.w3.org/2000/svg" width="900" height="1200" viewBox="0 0 900 1200">
  <defs>
    <linearGradient id="bg" x1="0" y1="0" x2="1" y2="1"><stop offset="0" stop-color="#06101a"/><stop offset=".55" stop-color="#0b1c2b"/><stop offset="1" stop-color="#130d22"/></linearGradient>
    <radialGradient id="glow" cx="65%" cy="25%" r="55%"><stop offset="0" stop-color="#d99b46" stop-opacity=".42"/><stop offset="1" stop-color="#d99b46" stop-opacity="0"/></radialGradient>
    <style>.t{font:700 74px serif;fill:#f5ead9}.s{font:500 28px sans-serif;fill:#a8bac8;letter-spacing:.12em}.m{fill:none;stroke:#d99b46;stroke-width:5;stroke-opacity:.62}.thin{fill:none;stroke:#f5ead9;stroke-width:2;stroke-opacity:.18}</style>
  </defs>
  <rect width="900" height="1200" fill="url(#bg)"/><rect width="900" height="1200" fill="url(#glow)"/>
  <circle cx="0" cy="0" r="1" fill="#dcefff" opacity="0.05"/><circle cx="83" cy="137" r="2" fill="#dcefff" opacity="0.08"/><circle cx="166" cy="274" r="3" fill="#dcefff" opacity="0.11"/><circle cx="249" cy="411" r="1" fill="#dcefff" opacity="0.14"/><circle cx="332" cy="548" r="2" fill="#dcefff" opacity="0.05"/><circle cx="415" cy="685" r="3" fill="#dcefff" opacity="0.08"/><circle cx="498" cy="822" r="1" fill="#dcefff" opacity="0.11"/><circle cx="581" cy="959" r="2" fill="#dcefff" opacity="0.14"/><circle cx="664" cy="1096" r="3" fill="#dcefff" opacity="0.05"/><circle cx="747" cy="33" r="1" fill="#dcefff" opacity="0.08"/><circle cx="830" cy="170" r="2" fill="#dcefff" opacity="0.11"/><circle cx="13" cy="307" r="3" fill="#dcefff" opacity="0.14"/><circle cx="96" cy="444" r="1" fill="#dcefff" opacity="0.05"/><circle cx="179" cy="581" r="2" fill="#dcefff" opacity="0.08"/><circle cx="262" cy="718" r="3" fill="#dcefff" opacity="0.11"/><circle cx="345" cy="855" r="1" fill="#dcefff" opacity="0.14"/><circle cx="428" cy="992" r="2" fill="#dcefff" opacity="0.05"/><circle cx="511" cy="1129" r="3" fill="#dcefff" opacity="0.08"/><circle cx="594" cy="66" r="1" fill="#dcefff" opacity="0.11"/><circle cx="677" cy="203" r="2" fill="#dcefff" opacity="0.14"/><circle cx="760" cy="340" r="3" fill="#dcefff" opacity="0.05"/><circle cx="843" cy="477" r="1" fill="#dcefff" opacity="0.08"/><circle cx="26" cy="614" r="2" fill="#dcefff" opacity="0.11"/><circle cx="109" cy="751" r="3" fill="#dcefff" opacity="0.14"/><circle cx="192" cy="888" r="1" fill="#dcefff" opacity="0.05"/><circle cx="275" cy="1025" r="2" fill="#dcefff" opacity="0.08"/><circle cx="358" cy="1162" r="3" fill="#dcefff" opacity="0.11"/><circle cx="441" cy="99" r="1" fill="#dcefff" opacity="0.14"/><circle cx="524" cy="236" r="2" fill="#dcefff" opacity="0.05"/><circle cx="607" cy="373" r="3" fill="#dcefff" opacity="0.08"/><circle cx="690" cy="510" r="1" fill="#dcefff" opacity="0.11"/><circle cx="773" cy="647" r="2" fill="#dcefff" opacity="0.14"/><circle cx="856" cy="784" r="3" fill="#dcefff" opacity="0.05"/><circle cx="39" cy="921" r="1" fill="#dcefff" opacity="0.08"/><circle cx="122" cy="1058" r="2" fill="#dcefff" opacity="0.11"/><circle cx="205" cy="1195" r="3" fill="#dcefff" opacity="0.14"/><circle cx="288" cy="132" r="1" fill="#dcefff" opacity="0.05"/><circle cx="371" cy="269" r="2" fill="#dcefff" opacity="0.08"/><circle cx="454" cy="406" r="3" fill="#dcefff" opacity="0.11"/><circle cx="537" cy="543" r="1" fill="#dcefff" opacity="0.14"/><circle cx="620" cy="680" r="2" fill="#dcefff" opacity="0.05"/><circle cx="703" cy="817" r="3" fill="#dcefff" opacity="0.08"/><circle cx="786" cy="954" r="1" fill="#dcefff" opacity="0.11"/><circle cx="869" cy="1091" r="2" fill="#dcefff" opacity="0.14"/><circle cx="52" cy="28" r="3" fill="#dcefff" opacity="0.05"/><circle cx="135" cy="165" r="1" fill="#dcefff" opacity="0.08"/><circle cx="218" cy="302" r="2" fill="#dcefff" opacity="0.11"/><circle cx="301" cy="439" r="3" fill="#dcefff" opacity="0.14"/><circle cx="384" cy="576" r="1" fill="#dcefff" opacity="0.05"/><circle cx="467" cy="713" r="2" fill="#dcefff" opacity="0.08"/><circle cx="550" cy="850" r="3" fill="#dcefff" opacity="0.11"/><circle cx="633" cy="987" r="1" fill="#dcefff" opacity="0.14"/><circle cx="716" cy="1124" r="2" fill="#dcefff" opacity="0.05"/><circle cx="799" cy="61" r="3" fill="#dcefff" opacity="0.08"/><circle cx="882" cy="198" r="1" fill="#dcefff" opacity="0.11"/><circle cx="65" cy="335" r="2" fill="#dcefff" opacity="0.14"/><circle cx="148" cy="472" r="3" fill="#dcefff" opacity="0.05"/><circle cx="231" cy="609" r="1" fill="#dcefff" opacity="0.08"/><circle cx="314" cy="746" r="2" fill="#dcefff" opacity="0.11"/><circle cx="397" cy="883" r="3" fill="#dcefff" opacity="0.14"/><circle cx="480" cy="1020" r="1" fill="#dcefff" opacity="0.05"/><circle cx="563" cy="1157" r="2" fill="#dcefff" opacity="0.08"/><circle cx="646" cy="94" r="3" fill="#dcefff" opacity="0.11"/><circle cx="729" cy="231" r="1" fill="#dcefff" opacity="0.14"/><circle cx="812" cy="368" r="2" fill="#dcefff" opacity="0.05"/><circle cx="895" cy="505" r="3" fill="#dcefff" opacity="0.08"/><circle cx="78" cy="642" r="1" fill="#dcefff" opacity="0.11"/><circle cx="161" cy="779" r="2" fill="#dcefff" opacity="0.14"/><circle cx="244" cy="916" r="3" fill="#dcefff" opacity="0.05"/><circle cx="327" cy="1053" r="1" fill="#dcefff" opacity="0.08"/><circle cx="410" cy="1190" r="2" fill="#dcefff" opacity="0.11"/><circle cx="493" cy="127" r="3" fill="#dcefff" opacity="0.14"/><circle cx="576" cy="264" r="1" fill="#dcefff" opacity="0.05"/><circle cx="659" cy="401" r="2" fill="#dcefff" opacity="0.08"/><circle cx="742" cy="538" r="3" fill="#dcefff" opacity="0.11"/><circle cx="825" cy="675" r="1" fill="#dcefff" opacity="0.14"/><circle cx="8" cy="812" r="2" fill="#dcefff" opacity="0.05"/><circle cx="91" cy="949" r="3" fill="#dcefff" opacity="0.08"/><circle cx="174" cy="1086" r="1" fill="#dcefff" opacity="0.11"/><circle cx="257" cy="23" r="2" fill="#dcefff" opacity="0.14"/>
  <path class="m" d="M190 760 L190 465 L300 405 L410 465 L410 760 Z"/><path class="m" d="M140 760 L460 760"/><path class="thin" d="M510 370 C640 450 680 610 590 760"/><path class="thin" d="M560 400 C690 500 740 660 650 825"/><rect x="520" y="585" width="190" height="120" rx="10" fill="#d99b46" fill-opacity=".12" stroke="#d99b46" stroke-opacity=".42"/><path class="m" d="M548 628 L682 628 M548 666 L654 666"/>
  <text x="90" y="930" class="t">边城密诏</text>
  <text x="94" y="986" class="s">FRONTIER EDICT</text>
  <line x1="90" y1="1032" x2="670" y2="1032" class="thin"/>
</svg>